<svg xmlns="http://www.w3.org/2000/svg" viewBox="0 0 64 26" fill="none">
    <path d="M15.2735 5.89115H18.2129C18.5249 5.89115 18.7781 5.63627 18.7781 5.32222V3.04651C18.7781 2.73246 18.5249 2.47758 18.2129 2.47758H17.2858C16.9851 2.47758 16.7432 2.23408 16.7432 1.93141V0.998371C16.7432 0.684323 16.4899 0.429443 16.1779 0.429443H8.03798C7.72595 0.429443 7.47271 0.684323 7.47271 0.998371V1.93141C7.47271 2.23408 7.23077 2.47758 6.93005 2.47758H6.003C5.69097 2.47758 5.43773 2.73246 5.43773 3.04651V3.97955C5.43773 4.28222 5.1958 4.52572 4.89507 4.52572H3.96803C3.656 4.52572 3.40276 4.7806 3.40276 5.09465C3.40276 5.09465 3.26709 5.43146 3.26709 11.4582C3.26709 17.2317 3.40276 17.8598 3.40276 17.8598C3.40276 18.1739 3.656 18.4287 3.96803 18.4287H4.89507C5.1958 18.4287 5.43773 18.6722 5.43773 18.9749V19.9307C5.43773 20.2334 5.67967 20.4769 5.98039 20.4769H6.93005C7.23077 20.4769 7.47271 20.7204 7.47271 21.023V21.9561C7.47271 22.2701 7.72595 22.525 8.03798 22.525H16.1779C16.4899 22.525 16.7432 22.2701 16.7432 21.9561V21.023C16.7432 20.7204 16.9851 20.4769 17.2858 20.4769H18.7827C19.0947 20.4769 19.3479 20.222 19.3479 19.9079V17.1953C19.3479 16.8812 19.0947 16.6264 18.7827 16.6264H15.2735C14.9614 16.6264 14.7082 16.8812 14.7082 17.1953V18.5653C14.7082 18.8679 14.4662 19.1114 14.1655 19.1114H10.0503C9.74962 19.1114 9.50768 18.8679 9.50768 18.5653V17.1771C9.50768 16.863 9.25444 16.6082 8.94241 16.6082H7.56315C7.26243 16.6082 7.09511 16.6514 7.02049 16.062C6.99788 15.8731 6.98431 15.641 6.96849 15.3292C6.92552 14.5464 6.88483 13.7226 6.88483 11.374C6.88483 8.5196 6.96849 6.89246 7.02049 6.43732C7.0725 5.98218 7.26243 5.89115 7.56315 5.89115H8.94241C9.25444 5.89115 9.50768 5.63627 9.50768 5.32222V4.38918C9.50768 4.08651 9.74962 3.84301 10.0503 3.84301H14.1655C14.4662 3.84301 14.7082 4.08651 14.7082 4.38918V5.32222C14.7082 5.63627 14.9614 5.89115 15.2735 5.89115Z" fill="currentColor"/>
    <path d="M5.01717 21.8582H4.35015C4.22126 21.8582 4.11499 21.7513 4.11499 21.6216V20.9502C4.11499 20.6885 3.90471 20.4769 3.64469 20.4769H1.84034C1.58032 20.4769 1.37004 20.6885 1.37004 20.9502V21.6216C1.37004 21.7513 1.26377 21.8582 1.13488 21.8582H0.467864C0.207839 21.8582 -0.00244141 22.0699 -0.00244141 22.3316V24.1476C-0.00244141 24.4093 0.207839 24.6209 0.467864 24.6209H1.13488C1.26377 24.6209 1.37004 24.7279 1.37004 24.8576V25.5289C1.37004 25.7907 1.58032 26.0023 1.84034 26.0023H3.64469C3.90471 26.0023 4.11499 25.7907 4.11499 25.5289V24.8576C4.11499 24.7279 4.22126 24.6209 4.35015 24.6209H5.01717C5.27719 24.6209 5.48747 24.4093 5.48747 24.1476V22.3316C5.48747 22.0699 5.27719 21.8582 5.01717 21.8582Z" fill="currentColor"/>
    <path d="M63.4576 10.2361H62.9601C62.6594 10.2361 62.4175 9.99265 62.4175 9.68998V8.73418C62.4175 8.43151 62.1755 8.18801 61.8748 8.18801H60.9252C60.6244 8.18801 60.3825 7.94451 60.3825 7.64184V6.68604C60.3825 6.38337 60.1406 6.13987 59.8398 6.13987H53.7394C53.4387 6.13987 53.1968 6.38337 53.1968 6.68604V7.84438C53.1968 7.99457 53.0747 8.11746 52.9254 8.11746H51.8899C51.7406 8.11746 51.6457 8.02416 51.6185 7.84438L51.4376 6.69969C51.3947 6.37882 51.2409 6.18083 50.9176 6.18083L49.8549 6.13987H49.258C48.6588 6.13987 48.1726 6.62915 48.1726 7.23221V18.0191C48.1726 18.6221 47.6865 19.1114 47.0873 19.1114H44.6453C44.3446 19.1114 44.1027 18.8679 44.1027 18.5653V10.7254C44.1027 7.2709 41.932 5.22958 37.541 5.22958C33.5502 5.22958 31.6283 6.70197 31.3728 9.44875C31.3411 9.78556 31.5333 9.97899 31.868 9.97899L34.1245 10.1451C34.4569 10.1747 34.588 9.98354 34.6514 9.66267C34.8752 8.57033 35.8656 7.96044 37.541 7.96044C39.6009 7.96044 40.4623 8.94127 40.4623 10.6116V11.4923C40.4623 11.795 40.2204 12.0385 39.9197 12.0385L39.8202 12.0317H36.9938C32.5078 12.0317 30.3078 13.7794 30.3078 17.2772C30.3078 18.3877 30.5339 19.339 30.9635 20.1218H30.7917C30.2784 19.7509 30.0772 19.4687 29.9031 19.2662C29.8285 19.1797 29.7131 19.1091 29.5119 19.1091H29.0122L27.2689 19.1114H26.3193C25.7201 19.1114 25.2339 18.6221 25.2339 18.0191V0.516586C25.2339 0.19116 25.0395 0 24.7184 0H22.2697C21.9689 0 21.727 0.213917 21.727 0.516586L21.7202 16.3806V20.3403C21.7202 21.5464 22.6925 22.525 23.8909 22.525H38.6806C41.1384 22.3998 41.1836 21.5259 41.4256 21.1982C41.6132 22.2382 41.9682 22.4681 42.7958 22.5182C45.1631 22.5523 48.1319 22.5273 48.1749 22.525H49.622C50.8204 22.525 51.5665 21.5464 51.5665 20.3403L51.7926 12.3753C51.7926 12.0726 52.0346 11.8291 52.3353 11.8291H52.9232C53.1719 11.8291 53.3754 11.6243 53.3754 11.374V10.3272C53.3754 10.0245 53.6173 9.781 53.9181 9.781H57.3707C57.9111 9.781 58.3498 10.2225 58.3498 10.7664V11.7154C58.3498 12.0294 58.603 12.2843 58.915 12.2843H60.1134C60.2626 12.2843 60.3848 12.4072 60.3848 12.5574V21.9788C60.3848 22.2815 60.6267 22.525 60.9274 22.525H62.9172C63.5164 22.525 64.0025 22.0357 64.0025 21.4326V10.7823C64.0025 10.4796 63.7606 10.2361 63.4598 10.2361H63.4576ZM40.6229 15.8412C40.6229 18.4492 38.8389 20.14 36.1618 20.14C34.2398 20.14 33.3128 19.2775 33.3128 17.5844C33.3128 15.7024 34.4275 14.7694 36.6931 14.7694H40.6229V15.8389V15.8412Z" fill="currentColor"/>
</svg>