<svg viewBox="0 0 200 21" fill="none" xmlns="http://www.w3.org/2000/svg">
    <path d="M191.879 19.297C191.736 19.297 191.602 19.2434 191.477 19.1362C191.37 19.029 191.316 18.9039 191.316 18.761V6.16432C191.316 6.02138 191.37 5.8963 191.477 5.7891C191.602 5.68189 191.736 5.62829 191.879 5.62829H193.246C193.568 5.62829 193.764 5.80697 193.836 6.16432C193.907 6.48594 193.979 6.72715 194.05 6.88796C194.139 7.0309 194.273 7.10237 194.452 7.10237C194.559 7.10237 194.676 7.06663 194.801 6.99516C194.926 6.90582 195.051 6.80755 195.176 6.70035C195.569 6.36086 195.971 6.10178 196.382 5.92311C196.793 5.72656 197.365 5.62829 198.097 5.62829H199.464C199.607 5.62829 199.732 5.68189 199.839 5.7891C199.946 5.8963 200 6.02138 200 6.16432V8.28163C200 8.42457 199.946 8.54964 199.839 8.65685C199.732 8.76405 199.607 8.81766 199.464 8.81766H197.936C196.9 8.81766 196.042 9.12141 195.363 9.7289C194.702 10.3364 194.372 11.2745 194.372 12.543V18.761C194.372 18.9039 194.318 19.029 194.211 19.1362C194.104 19.2434 193.979 19.297 193.836 19.297H191.879Z"
          fill="currentColor"/>
    <path d="M182.709 19.7526C180.583 19.7526 178.93 19.0915 177.751 17.7693C176.589 16.4471 176.009 14.6782 176.009 12.4626C176.009 11.0154 176.268 9.74677 176.786 8.65685C177.304 7.54906 178.064 6.69141 179.064 6.08391C180.065 5.47642 181.253 5.17267 182.629 5.17267C184.648 5.17267 186.238 5.7623 187.399 6.94156C188.579 8.12082 189.168 9.74677 189.168 11.8194V12.7843C189.168 13.0165 189.106 13.1952 188.981 13.3203C188.856 13.4454 188.686 13.5079 188.471 13.5079H179.573C179.395 13.5079 179.305 13.6062 179.305 13.8027C179.341 14.839 179.681 15.6609 180.324 16.2684C180.967 16.8581 181.762 17.1529 182.709 17.1529C184.031 17.1529 184.978 16.6526 185.55 15.652C185.747 15.3304 185.97 15.1696 186.22 15.1696H188.284C188.445 15.1696 188.579 15.2321 188.686 15.3572C188.793 15.4644 188.82 15.6163 188.766 15.8128C188.427 16.9921 187.73 17.948 186.676 18.6806C185.622 19.3953 184.299 19.7526 182.709 19.7526ZM179.279 10.801C179.279 10.9796 179.377 11.069 179.573 11.069H185.791C185.952 11.069 186.032 10.9796 186.032 10.801C186.032 9.92545 185.72 9.19288 185.094 8.60325C184.487 7.99575 183.665 7.692 182.629 7.692C181.664 7.692 180.869 7.99575 180.243 8.60325C179.636 9.19288 179.314 9.92545 179.279 10.801Z"
          fill="currentColor"/>
    <path d="M166.551 19.7526C165.621 19.7526 164.773 19.6008 164.004 19.297C163.236 18.9754 162.584 18.5108 162.048 17.9033C161.44 17.2601 160.976 16.4739 160.654 15.5448C160.333 14.6157 160.172 13.5883 160.172 12.4627C160.172 11.337 160.333 10.3096 160.654 9.38049C160.976 8.45137 161.44 7.6652 162.048 7.02197C162.584 6.43234 163.236 5.97671 164.004 5.6551C164.773 5.33348 165.621 5.17267 166.551 5.17267C167.247 5.17267 167.801 5.24414 168.212 5.38708C168.641 5.51215 169.079 5.69083 169.526 5.92311C169.561 5.94098 169.66 5.99458 169.82 6.08392C169.981 6.17326 170.133 6.21792 170.276 6.21792C170.598 6.21792 170.758 6.03032 170.758 5.6551V0.536027C170.758 0.393087 170.812 0.268014 170.919 0.160808C171.026 0.0536026 171.16 0 171.321 0H173.305C173.447 0 173.573 0.0536026 173.68 0.160808C173.787 0.268014 173.841 0.393087 173.841 0.536027V18.761C173.841 18.9039 173.787 19.029 173.68 19.1362C173.573 19.2434 173.447 19.297 173.305 19.297H171.911C171.661 19.297 171.446 19.1541 171.268 18.8682C171.16 18.7252 171.053 18.618 170.946 18.5466C170.857 18.4751 170.732 18.4394 170.571 18.4394C170.356 18.4394 170.062 18.5644 169.686 18.8146C169.24 19.1005 168.793 19.3238 168.346 19.4846C167.9 19.6633 167.301 19.7526 166.551 19.7526ZM163.308 12.4627C163.308 13.6955 163.62 14.6961 164.246 15.4644C164.567 15.8575 164.969 16.1702 165.452 16.4025C165.934 16.6169 166.488 16.7241 167.113 16.7241C168.328 16.7241 169.284 16.3042 169.981 15.4644C170.589 14.6961 170.892 13.6955 170.892 12.4627C170.892 11.2298 170.589 10.2381 169.981 9.4877C169.302 8.63005 168.346 8.20123 167.113 8.20123C166.488 8.20123 165.934 8.31737 165.452 8.54965C164.969 8.76406 164.567 9.07674 164.246 9.4877C163.62 10.2203 163.308 11.2119 163.308 12.4627Z"
          fill="currentColor"/>
    <path d="M155.415 19.297C155.272 19.297 155.147 19.2434 155.04 19.1362C154.933 19.029 154.879 18.9039 154.879 18.761V0.536027C154.879 0.393087 154.933 0.268014 155.04 0.160808C155.147 0.0536026 155.272 0 155.415 0H157.399C157.542 0 157.667 0.0536026 157.774 0.160808C157.881 0.268014 157.935 0.393087 157.935 0.536027V18.761C157.935 18.9039 157.881 19.029 157.774 19.1362C157.667 19.2434 157.542 19.297 157.399 19.297H155.415Z"
          fill="currentColor"/>
    <path d="M149.107 19.297C148.946 19.297 148.812 19.2434 148.705 19.1362C148.615 19.029 148.571 18.9039 148.571 18.761V6.16432C148.571 6.02138 148.615 5.89631 148.705 5.7891C148.812 5.68189 148.946 5.62829 149.107 5.62829H151.09C151.251 5.62829 151.376 5.68189 151.465 5.7891C151.573 5.87844 151.626 6.00351 151.626 6.16432V18.761C151.626 18.9218 151.573 19.0558 151.465 19.163C151.376 19.2523 151.251 19.297 151.09 19.297H149.107ZM148.33 0.696836C148.33 0.58963 148.365 0.491358 148.437 0.40202C148.526 0.312682 148.633 0.268013 148.758 0.268013H151.492C151.617 0.268013 151.715 0.312682 151.787 0.40202C151.876 0.491358 151.921 0.58963 151.921 0.696836V3.18937C151.921 3.31444 151.876 3.42164 151.787 3.51098C151.715 3.58245 151.617 3.61819 151.492 3.61819H148.758C148.633 3.61819 148.526 3.58245 148.437 3.51098C148.365 3.42164 148.33 3.31444 148.33 3.18937V0.696836Z"
          fill="currentColor"/>
    <path d="M105.963 19.7526C105.213 19.7526 104.614 19.6633 104.168 19.4846C103.721 19.3238 103.274 19.1005 102.828 18.8146C102.452 18.5644 102.158 18.4394 101.943 18.4394C101.782 18.4394 101.648 18.4751 101.541 18.5466C101.452 18.618 101.353 18.7252 101.246 18.8682C101.068 19.1541 100.853 19.297 100.603 19.297H99.2094C99.0664 19.297 98.9414 19.2434 98.8342 19.1362C98.7269 19.029 98.6733 18.9039 98.6733 18.761V0.536027C98.6733 0.393087 98.7269 0.268014 98.8342 0.160808C98.9414 0.0536026 99.0664 0 99.2094 0H101.193C101.336 0 101.461 0.0536026 101.568 0.160808C101.675 0.268014 101.729 0.393087 101.729 0.536027V5.6551C101.729 6.03032 101.898 6.21792 102.238 6.21792C102.381 6.21792 102.533 6.17326 102.694 6.08392C102.854 5.99458 102.953 5.94098 102.988 5.92311C103.435 5.69083 103.864 5.51215 104.275 5.38708C104.704 5.24414 105.266 5.17267 105.963 5.17267C106.892 5.17267 107.741 5.33348 108.509 5.6551C109.278 5.97671 109.93 6.43234 110.466 7.02197C111.073 7.6652 111.538 8.45137 111.86 9.38049C112.181 10.3096 112.342 11.337 112.342 12.4627C112.342 13.5883 112.181 14.6157 111.86 15.5448C111.538 16.4739 111.073 17.2601 110.466 17.9033C109.93 18.5108 109.278 18.9754 108.509 19.297C107.741 19.6008 106.892 19.7526 105.963 19.7526ZM101.621 12.4627C101.621 13.6955 101.925 14.6961 102.533 15.4644C103.23 16.3042 104.185 16.7241 105.4 16.7241C106.026 16.7241 106.58 16.6169 107.062 16.4025C107.545 16.1702 107.947 15.8575 108.268 15.4644C108.894 14.6961 109.206 13.6955 109.206 12.4627C109.206 11.2119 108.894 10.2203 108.268 9.4877C107.947 9.07674 107.545 8.76406 107.062 8.54965C106.58 8.31737 106.026 8.20123 105.4 8.20123C104.168 8.20123 103.212 8.63005 102.533 9.4877C101.925 10.2381 101.621 11.2298 101.621 12.4627Z"
          fill="currentColor"/>
    <path d="M93.5555 19.297C92.1619 19.297 91.0898 18.9039 90.3394 18.1177C89.6068 17.3316 89.2405 16.2863 89.2405 14.982V8.81765C89.2405 8.63897 89.1512 8.54964 88.9725 8.54964H86.2924C86.1494 8.54964 86.0244 8.49603 85.9172 8.38883C85.81 8.28162 85.7563 8.15655 85.7563 8.01361V6.16431C85.7563 6.02137 85.81 5.8963 85.9172 5.78909C86.0244 5.68189 86.1494 5.62828 86.2924 5.62828H88.9725C89.1512 5.62828 89.2405 5.53895 89.2405 5.36027V1.47407C89.2405 1.33113 89.2941 1.20605 89.4013 1.09885C89.5085 0.991643 89.6336 0.93804 89.7766 0.93804H91.7598C91.9028 0.93804 92.0279 0.991643 92.1351 1.09885C92.2423 1.20605 92.2959 1.33113 92.2959 1.47407V5.36027C92.2959 5.53895 92.3852 5.62828 92.5639 5.62828H96.2625C96.4054 5.62828 96.5305 5.68189 96.6377 5.78909C96.7449 5.8963 96.7985 6.02137 96.7985 6.16431V8.01361C96.7985 8.15655 96.7449 8.28162 96.6377 8.38883C96.5305 8.49603 96.4054 8.54964 96.2625 8.54964H92.5639C92.3852 8.54964 92.2959 8.63897 92.2959 8.81765V14.5531C92.2959 15.107 92.4477 15.5269 92.7515 15.8128C93.0552 16.0987 93.4751 16.2416 94.0112 16.2416H96.2625C96.4054 16.2416 96.5305 16.2952 96.6377 16.4024C96.7449 16.5096 96.7985 16.6347 96.7985 16.7777V18.761C96.7985 18.9039 96.7449 19.029 96.6377 19.1362C96.5305 19.2434 96.4054 19.297 96.2625 19.297H93.5555Z"
          fill="currentColor"/>
    <path d="M78.7594 19.7526C76.6332 19.7526 74.9804 19.0915 73.8012 17.7693C72.6398 16.4471 72.0591 14.6782 72.0591 12.4626C72.0591 11.0154 72.3182 9.74677 72.8363 8.65685C73.3545 7.54906 74.1139 6.69141 75.1144 6.08391C76.115 5.47642 77.3032 5.17267 78.679 5.17267C80.698 5.17267 82.2883 5.7623 83.4496 6.94156C84.6289 8.12082 85.2185 9.74677 85.2185 11.8194V12.7843C85.2185 13.0165 85.156 13.1952 85.0309 13.3203C84.9059 13.4454 84.7361 13.5079 84.5217 13.5079H75.6237C75.445 13.5079 75.3556 13.6062 75.3556 13.8027C75.3914 14.839 75.7309 15.6609 76.3741 16.2684C77.0173 16.8581 77.8124 17.1529 78.7594 17.1529C80.0816 17.1529 81.0286 16.6526 81.6004 15.652C81.7969 15.3304 82.0202 15.1696 82.2704 15.1696H84.3341C84.4949 15.1696 84.6289 15.2321 84.7361 15.3572C84.8433 15.4644 84.8701 15.6163 84.8165 15.8128C84.477 16.9921 83.7802 17.948 82.726 18.6806C81.6718 19.3953 80.3496 19.7526 78.7594 19.7526ZM75.3288 10.801C75.3288 10.9796 75.4271 11.069 75.6237 11.069H81.8416C82.0024 11.069 82.0828 10.9796 82.0828 10.801C82.0828 9.92545 81.7701 9.19288 81.1447 8.60325C80.5372 7.99575 79.7153 7.692 78.679 7.692C77.7142 7.692 76.9191 7.99575 76.2937 8.60325C75.6862 9.19288 75.3646 9.92545 75.3288 10.801Z"
          fill="currentColor"/>
    <path d="M58.246 19.297C58.103 19.297 57.978 19.2434 57.8708 19.1362C57.7636 19.029 57.71 18.9039 57.71 18.761V6.16432C57.71 6.02138 57.7636 5.8963 57.8708 5.7891C57.978 5.68189 58.103 5.62829 58.246 5.62829H59.6665C59.8273 5.62829 59.9523 5.66402 60.0417 5.7355C60.131 5.7891 60.2382 5.88737 60.3633 6.03031C60.4526 6.15538 60.533 6.25366 60.6045 6.32513C60.6938 6.37873 60.81 6.40553 60.9529 6.40553C61.078 6.40553 61.2031 6.3698 61.3281 6.29833C61.4532 6.22685 61.5783 6.14645 61.7034 6.05711C62.0964 5.7891 62.4985 5.57469 62.9094 5.41388C63.3382 5.25307 63.9279 5.17267 64.6783 5.17267C65.7146 5.17267 66.6348 5.39601 67.4388 5.8427C68.2429 6.28939 68.8682 6.94156 69.3149 7.7992C69.7795 8.65685 70.0118 9.68424 70.0118 10.8814V18.761C70.0118 18.9039 69.9582 19.029 69.851 19.1362C69.7438 19.2434 69.6187 19.297 69.4757 19.297H67.4924C67.3495 19.297 67.2244 19.2434 67.1172 19.1362C67.01 19.029 66.9564 18.9039 66.9564 18.761V11.3638C66.9564 10.3632 66.6705 9.58596 66.0988 9.03207C65.5449 8.47817 64.8034 8.20122 63.8743 8.20122C62.9452 8.20122 62.1947 8.47817 61.623 9.03207C61.0512 9.58596 60.7653 10.3632 60.7653 11.3638V18.761C60.7653 18.9039 60.7117 19.029 60.6045 19.1362C60.4973 19.2434 60.3722 19.297 60.2293 19.297H58.246Z"
          fill="currentColor"/>
    <path d="M53.1744 19.297C52.8528 19.297 52.5669 19.1541 52.3168 18.8682L48.0822 13.8295C48.0107 13.7581 47.9303 13.7223 47.8409 13.7223C47.7695 13.7223 47.7069 13.7491 47.6533 13.8027C47.5997 13.8563 47.5729 13.9189 47.5729 13.9903V18.761C47.5729 18.9039 47.5193 19.029 47.4121 19.1362C47.3049 19.2434 47.1798 19.297 47.0369 19.297H45.0536C44.9107 19.297 44.7856 19.2434 44.6784 19.1362C44.5712 19.029 44.5176 18.9039 44.5176 18.761V0.536027C44.5176 0.393087 44.5712 0.268014 44.6784 0.160808C44.7856 0.0536026 44.9107 0 45.0536 0H47.0369C47.1798 0 47.3049 0.0536026 47.4121 0.160808C47.5193 0.268014 47.5729 0.393087 47.5729 0.536027V10.5061C47.5729 10.5955 47.5997 10.667 47.6533 10.7206C47.7069 10.7742 47.7695 10.801 47.8409 10.801C47.9124 10.801 47.9839 10.7652 48.0554 10.6938L52.424 6.00351C52.6741 5.75337 52.9421 5.62829 53.228 5.62829H55.3989C55.5597 5.62829 55.6848 5.6819 55.7741 5.7891C55.8813 5.89631 55.9349 6.02138 55.9349 6.16432C55.9349 6.32513 55.8813 6.45914 55.7741 6.56634L50.8695 11.8462C50.7623 11.9534 50.7087 12.0606 50.7087 12.1678C50.7087 12.275 50.7623 12.3822 50.8695 12.4895L55.8813 18.359C55.9885 18.484 56.0421 18.618 56.0421 18.761C56.0421 18.9218 55.9885 19.0558 55.8813 19.163C55.792 19.2523 55.6669 19.297 55.5061 19.297H53.1744Z"
          fill="currentColor"/>
    <path d="M34.9505 19.297C34.8076 19.297 34.6736 19.2434 34.5485 19.1362C34.4413 19.029 34.3877 18.9039 34.3877 18.761V6.16432C34.3877 6.02138 34.4413 5.8963 34.5485 5.7891C34.6736 5.68189 34.8076 5.62829 34.9505 5.62829H36.3174C36.639 5.62829 36.8356 5.80697 36.907 6.16432C36.9785 6.48594 37.05 6.72715 37.1214 6.88796C37.2108 7.0309 37.3448 7.10237 37.5235 7.10237C37.6307 7.10237 37.7468 7.06663 37.8719 6.99516C37.9969 6.90582 38.122 6.80755 38.2471 6.70035C38.6402 6.36086 39.0422 6.10178 39.4531 5.92311C39.8641 5.72656 40.4359 5.62829 41.1684 5.62829H42.5353C42.6782 5.62829 42.8033 5.68189 42.9105 5.7891C43.0177 5.8963 43.0713 6.02138 43.0713 6.16432V8.28163C43.0713 8.42457 43.0177 8.54964 42.9105 8.65685C42.8033 8.76405 42.6782 8.81766 42.5353 8.81766H41.0076C39.9713 8.81766 39.1137 9.12141 38.4347 9.7289C37.7736 10.3364 37.443 11.2745 37.443 12.543V18.761C37.443 18.9039 37.3894 19.029 37.2822 19.1362C37.175 19.2434 37.05 19.297 36.907 19.297H34.9505Z"
          fill="currentColor"/>
    <path d="M23.8885 19.7526C22.9594 19.7526 22.1107 19.6007 21.3424 19.297C20.5741 18.9754 19.9219 18.5108 19.3859 17.9033C18.7784 17.2601 18.3138 16.4739 17.9922 15.5448C17.6706 14.6157 17.5098 13.5883 17.5098 12.4626C17.5098 11.337 17.6706 10.3096 17.9922 9.38048C18.3138 8.45137 18.7784 7.6652 19.3859 7.02196C19.9219 6.43233 20.5741 5.97671 21.3424 5.65509C22.1107 5.33348 22.9594 5.17267 23.8885 5.17267C24.6389 5.17267 25.2375 5.262 25.6842 5.44068C26.1309 5.60149 26.5775 5.82483 27.0242 6.11072C27.3995 6.36086 27.6943 6.48594 27.9087 6.48594C28.0695 6.48594 28.1946 6.4502 28.2839 6.37873C28.3911 6.30726 28.4983 6.20005 28.6055 6.05711C28.7842 5.77123 28.9986 5.62829 29.2487 5.62829H30.6424C30.7854 5.62829 30.9104 5.68189 31.0176 5.7891C31.1248 5.8963 31.1784 6.02138 31.1784 6.16432V18.761C31.1784 18.9039 31.1248 19.029 31.0176 19.1362C30.9104 19.2434 30.7854 19.297 30.6424 19.297H29.2487C28.9986 19.297 28.7842 19.1541 28.6055 18.8682C28.4983 18.7252 28.3911 18.618 28.2839 18.5466C28.1946 18.4751 28.0695 18.4394 27.9087 18.4394C27.6943 18.4394 27.3995 18.5644 27.0242 18.8146C26.5775 19.1005 26.1309 19.3238 25.6842 19.4846C25.2375 19.6633 24.6389 19.7526 23.8885 19.7526ZM20.6455 12.4626C20.6455 13.6955 20.9582 14.6961 21.5836 15.4644C21.9052 15.8575 22.3072 16.1702 22.7896 16.4024C23.2721 16.6169 23.8259 16.7241 24.4513 16.7241C25.0767 16.7241 25.6306 16.6169 26.113 16.4024C26.5954 16.1702 26.9974 15.8575 27.3191 15.4644C27.9265 14.6961 28.2303 13.6955 28.2303 12.4626C28.2303 11.2298 27.9265 10.2381 27.3191 9.48769C26.9974 9.07674 26.5954 8.76405 26.113 8.54964C25.6306 8.31736 25.0767 8.20122 24.4513 8.20122C23.8259 8.20122 23.2721 8.31736 22.7896 8.54964C22.3072 8.76405 21.9052 9.07674 21.5836 9.48769C20.9582 10.2203 20.6455 11.2119 20.6455 12.4626Z"
          fill="currentColor"/>
    <path d="M0.536027 19.297C0.393086 19.297 0.268013 19.2434 0.160808 19.1362C0.0536025 19.029 0 18.9039 0 18.761V1.07206C0 0.929116 0.0536025 0.804043 0.160808 0.696837C0.268013 0.589631 0.393086 0.536028 0.536027 0.536028H6.83434C9.47874 0.536028 11.6407 1.349 13.3203 2.97495C14.16 3.79686 14.8033 4.80638 15.25 6.00351C15.6966 7.18277 15.92 8.48711 15.92 9.91652C15.92 11.3459 15.6966 12.6592 15.25 13.8563C14.8033 15.0356 14.16 16.0362 13.3203 16.8581C11.6407 18.484 9.47874 19.297 6.83434 19.297H0.536027ZM3.24296 15.786C3.24296 15.9647 3.3323 16.054 3.51098 16.054H6.83434C8.53176 16.054 9.88076 15.5537 10.8813 14.5532C11.4352 14.0171 11.8551 13.356 12.141 12.5699C12.4269 11.7837 12.5698 10.8992 12.5698 9.91652C12.5698 8.9338 12.4269 8.04935 12.141 7.26318C11.8551 6.477 11.4352 5.8159 10.8813 5.27988C9.84502 4.27929 8.49602 3.779 6.83434 3.779H3.51098C3.3323 3.779 3.24296 3.86833 3.24296 4.04701V15.786Z"
          fill="currentColor"/>
    <g clip-path="url(#clip0_4498_21233)">
        <path d="M140.006 0.211082H142.457C143.062 0.211082 143.553 0.705733 143.553 1.31591V4.01815C143.553 4.62833 143.062 5.12298 142.457 5.12298H140.006C139.401 5.12298 138.911 4.62833 138.911 4.01815V1.31591C138.911 0.705733 139.401 0.211082 140.006 0.211082Z"
              fill="currentColor"/>
        <path d="M116.73 0.211082H119.181C119.786 0.211082 120.277 0.705733 120.277 1.31591V4.01815C120.277 4.62833 119.786 5.12298 119.181 5.12298H116.73C116.125 5.12298 115.635 4.62833 115.635 4.01815V1.31591C115.635 0.705733 116.125 0.211082 116.73 0.211082Z"
              fill="currentColor"/>
        <path d="M116.673 11.4481H119.184C119.499 11.4481 119.702 11.6806 119.754 12.0236L119.983 13.6601C120.017 13.8373 120.106 13.9363 120.256 13.9363H121.576C121.89 13.9363 122.089 14.1527 122.146 14.5118L122.374 15.8974C122.411 16.192 122.612 16.3716 122.922 16.4498C122.922 16.4498 124.223 16.8572 129.643 16.8572V20.3121C124.225 20.3121 121.119 19.9024 121.119 19.9024C120.861 19.8633 120.549 19.6446 120.549 19.327L120.32 18.1071C120.32 17.9551 120.197 17.8309 120.046 17.8309H118.49C118.175 17.8309 118.002 17.5754 117.919 17.2554L117.691 16.3278C117.657 16.1345 117.568 16.0516 117.417 16.0516H116.902C116.587 16.0516 116.331 15.7938 116.331 15.4762L116.103 12.0236C116.103 11.7059 116.358 11.4481 116.673 11.4481Z"
              fill="currentColor"/>
        <path d="M136.912 15.8974L137.14 14.5118C137.197 14.1527 137.395 13.9363 137.71 13.9363H139.03C139.18 13.9363 139.269 13.8373 139.303 13.6601L139.532 12.0236C139.584 11.6806 139.787 11.4481 140.102 11.4481H142.613C142.927 11.4481 143.183 11.7059 143.183 12.0236L142.955 15.4762C142.955 15.7938 142.699 16.0516 142.384 16.0516H141.869C141.718 16.0516 141.629 16.1345 141.595 16.3278L141.366 17.2554C141.284 17.5754 141.111 17.8309 140.796 17.8309H139.239C139.089 17.8309 138.966 17.9551 138.966 18.1071L138.737 19.327C138.737 19.6446 138.425 19.8633 138.167 19.9024C138.167 19.9024 135.061 20.3121 129.643 20.3121V16.8572C135.063 16.8572 136.364 16.4498 136.364 16.4498C136.674 16.3716 136.875 16.192 136.912 15.8974Z"
              fill="currentColor"/>
    </g>
    <defs>
        <clipPath id="clip0_4498_21233">
            <rect width="27.9181" height="20.101" fill="currentColor" transform="matrix(-1 0 0 1 143.553 0.211082)"/>
        </clipPath>
    </defs>
</svg>
