<svg xmlns="http://www.w3.org/2000/svg" width="320" height="33" fill="none"><path fill="#0D1416" d="M307.006 30.8762c-.228 0-.443-.0857-.643-.2572-.172-.1716-.257-.3717-.257-.6004V9.8638c0-.2287.085-.4289.257-.6004.2-.1715.415-.2573.643-.2573h2.187c.515 0 .829.2859.944.8577.114.5145.228.9005.343 1.1578.143.2287.357.3431.643.3431.171 0 .357-.0572.557-.1716.201-.1429.401-.3002.601-.4717.629-.5432 1.272-.9577 1.929-1.2436.658-.3145 1.573-.4717 2.745-.4717h2.187c.229 0 .429.0858.6.2573.172.1715.258.3716.258.6004v3.3877c0 .2287-.086.4288-.258.6003-.171.1716-.371.2573-.6.2573h-2.444c-1.658 0-3.031.486-4.117 1.458-1.058.9721-1.587 2.4729-1.587 4.5027v9.9488c0 .2287-.085.4288-.257.6004-.172.1715-.372.2572-.6.2572h-3.131ZM292.334 31.6035c-3.402 0-6.046-1.0577-7.933-3.1733-1.858-2.1155-2.787-4.9458-2.787-8.4907 0-2.3157.414-4.3455 1.243-6.0894.829-1.7724 2.044-3.1447 3.645-4.1167s3.502-1.458 5.704-1.458c3.23 0 5.774.9434 7.633 2.8302 1.886 1.8869 2.83 4.4884 2.83 7.8047v1.5438c0 .3716-.1.6575-.3.8576-.201.2001-.472.3002-.815.3002h-14.237c-.286 0-.429.1572-.429.4717.057 1.6581.601 2.9732 1.63 3.9452 1.029.9434 2.301 1.4151 3.816 1.4151 2.116 0 3.631-.8004 4.546-2.4014.314-.5146.672-.7719 1.072-.7719h3.302c.257 0 .471.1001.643.3002.171.1715.214.4145.129.729-.544 1.8868-1.659 3.4163-3.345 4.5884-1.687 1.1436-3.802 1.7153-6.347 1.7153Zm-5.489-14.3228c0 .2859.158.4289.472.4289h9.949c.257 0 .386-.143.386-.4289 0-1.4008-.501-2.5729-1.501-3.5163-.972-.972-2.287-1.458-3.945-1.458-1.544 0-2.816.486-3.817 1.458-.972.9434-1.487 2.1155-1.544 3.5163ZM266.482 31.6045c-1.487 0-2.844-.243-4.074-.729-1.229-.5146-2.272-1.2579-3.13-2.2299-.972-1.0292-1.715-2.2871-2.23-3.7737-.515-1.4866-.772-3.1304-.772-4.9315 0-1.801.257-3.4449.772-4.9315.515-1.4866 1.258-2.7445 2.23-3.7736.858-.9435 1.901-1.6725 3.13-2.187 1.23-.5146 2.587-.772 4.074-.772 1.115 0 2.001.1144 2.659.3431.686.2001 1.386.486 2.101.8577.057.0285.214.1143.472.2573.257.1429.5.2144.729.2144.514 0 .772-.3002.772-.9006V.8577c0-.2288.085-.4289.257-.6004.171-.1715.386-.2573.643-.2573h3.173c.229 0 .429.0858.601.2573.171.1715.257.3716.257.6004v29.1601c0 .2288-.086.4289-.257.6004-.172.1715-.372.2573-.601.2573h-2.23c-.4 0-.743-.2287-1.029-.6861-.171-.2287-.343-.4003-.514-.5146-.143-.1144-.343-.1715-.601-.1715-.343 0-.814.2001-1.415.6003-.714.4574-1.429.8148-2.144 1.0721-.715.2859-1.672.4288-2.873.4288Zm-5.189-11.6641c0 1.9726.501 3.5736 1.501 4.8029.515.6289 1.158 1.1292 1.93 1.5009.772.343 1.658.5146 2.659.5146 1.944 0 3.473-.6719 4.588-2.0155.972-1.2293 1.458-2.8303 1.458-4.8029 0-1.9726-.486-3.5592-1.458-4.7599-1.086-1.3723-2.616-2.0584-4.588-2.0584-1.001 0-1.887.1858-2.659.5575-.772.343-1.415.8433-1.93 1.5009-1 1.1721-1.501 2.7587-1.501 4.7599ZM248.665 30.8755c-.229 0-.429-.0858-.6-.2573-.172-.1715-.258-.3716-.258-.6004V.8577c0-.2288.086-.4289.258-.6004.171-.1715.371-.2573.6-.2573h3.173c.229 0 .429.0858.601.2573.171.1715.257.3716.257.6004v29.1601c0 .2288-.086.4289-.257.6004-.172.1715-.372.2573-.601.2573h-3.173ZM238.571 30.8759c-.257 0-.471-.0858-.643-.2573-.143-.1715-.214-.3717-.214-.6004V9.8634c0-.2287.071-.4288.214-.6004.172-.1715.386-.2573.643-.2573h3.173c.258 0 .458.0858.601.2573.171.143.257.343.257.6004v20.1548c0 .2573-.086.4717-.257.6433-.143.1429-.343.2144-.601.2144h-3.173Zm-1.243-29.7606c0-.1715.057-.3287.171-.4717.143-.143.315-.2144.515-.2144h4.374c.2 0 .357.0715.471.2144.143.143.215.3002.215.4717v3.9881c0 .2001-.072.3717-.215.5146-.114.1143-.271.1715-.471.1715h-4.374c-.2 0-.372-.0572-.515-.1715-.114-.143-.171-.3145-.171-.5146v-3.988ZM169.542 31.6045c-1.201 0-2.158-.1429-2.873-.4288-.715-.2573-1.43-.6147-2.144-1.0721-.601-.4002-1.072-.6003-1.415-.6003-.258 0-.472.0571-.644.1715-.142.1143-.3.2859-.471.5146-.286.4574-.629.6861-1.029.6861h-2.23c-.229 0-.429-.0858-.601-.2573-.171-.1715-.257-.3716-.257-.6004V.8577c0-.2288.086-.4289.257-.6004.172-.1715.372-.2573.601-.2573h3.173c.229 0 .429.0858.6.2573.172.1715.258.3716.258.6004v8.1905c0 .6004.271.9006.814.9006.229 0 .472-.0715.729-.2144.258-.143.415-.2288.472-.2573.715-.3717 1.401-.6576 2.058-.8577.687-.2287 1.587-.343 2.702-.343 1.487 0 2.845.2572 4.074.7718 1.229.5146 2.273 1.2436 3.13 2.1871.972 1.0291 1.715 2.287 2.23 3.7736.515 1.4866.772 3.1305.772 4.9315 0 1.8011-.257 3.4449-.772 4.9315-.515 1.4866-1.258 2.7445-2.23 3.7737-.857.972-1.901 1.7153-3.13 2.2299-1.229.486-2.587.729-4.074.729Zm-6.947-11.6641c0 1.9726.486 3.5736 1.458 4.8029 1.115 1.3436 2.644 2.0155 4.588 2.0155 1.001 0 1.887-.1716 2.659-.5146.772-.3717 1.415-.872 1.93-1.5009 1-1.2293 1.501-2.8303 1.501-4.8029 0-2.0012-.501-3.5878-1.501-4.7599-.515-.6576-1.158-1.1579-1.93-1.5009-.772-.3717-1.658-.5575-2.659-.5575-1.972 0-3.502.6861-4.588 2.0584-.972 1.2007-1.458 2.7873-1.458 4.7599ZM149.689 30.8751c-2.23 0-3.945-.629-5.146-1.8868-1.172-1.2579-1.758-2.9304-1.758-5.0173v-9.863c0-.2859-.143-.4288-.429-.4288h-4.288c-.229 0-.429-.0858-.6-.2573-.172-.1716-.258-.3717-.258-.6004V9.8626c0-.2287.086-.4288.258-.6004.171-.1715.371-.2573.6-.2573h4.288c.286 0 .429-.1429.429-.4288v-6.218c0-.2287.086-.4288.257-.6003.172-.1716.372-.2573.601-.2573h3.173c.229 0 .429.0857.6.2573.172.1715.258.3716.258.6003v6.218c0 .286.143.4288.428.4288h5.918c.229 0 .429.0858.6.2574.172.1715.258.3716.258.6003v2.9589c0 .2287-.086.4288-.258.6004-.171.1715-.371.2573-.6.2573h-5.918c-.285 0-.428.1429-.428.4288v9.1769c0 .8862.243 1.558.729 2.0154.486.4575 1.157.6862 2.015.6862h3.602c.229 0 .429.0857.6.2573.172.1715.258.3716.258.6003v3.1733c0 .2287-.086.4289-.258.6004-.171.1715-.371.2573-.6.2573h-4.331ZM126.014 31.6035c-3.402 0-6.046-1.0577-7.933-3.1733-1.858-2.1155-2.787-4.9458-2.787-8.4907 0-2.3157.414-4.3455 1.243-6.0894.829-1.7724 2.044-3.1447 3.645-4.1167s3.502-1.458 5.704-1.458c3.23 0 5.774.9434 7.633 2.8302 1.886 1.8869 2.83 4.4884 2.83 7.8047v1.5438c0 .3716-.1.6575-.3.8576-.2.2001-.472.3002-.815.3002h-14.237c-.286 0-.429.1572-.429.4717.057 1.6581.601 2.9732 1.63 3.9452 1.029.9434 2.301 1.4151 3.816 1.4151 2.116 0 3.631-.8004 4.546-2.4014.314-.5146.672-.7719 1.072-.7719h3.302c.257 0 .471.1001.643.3002.171.1715.214.4145.129.729-.544 1.8868-1.659 3.4163-3.345 4.5884-1.687 1.1436-3.802 1.7153-6.347 1.7153Zm-5.489-14.3228c0 .2859.158.4289.472.4289h9.949c.257 0 .386-.143.386-.4289 0-1.4008-.501-2.5729-1.501-3.5163-.972-.972-2.287-1.458-3.945-1.458-1.544 0-2.816.486-3.817 1.458-.972.9434-1.487 2.1155-1.544 3.5163ZM93.1936 30.8745c-.2287 0-.4288-.0857-.6004-.2572-.1715-.1716-.2573-.3717-.2573-.6004V9.8621c0-.2288.0858-.4289.2573-.6004.1716-.1715.3717-.2573.6004-.2573h2.2727c.2573 0 .4574.0572.6004.1715.1429.0858.3145.243.5146.4717.1429.2001.2716.3574.3859.4717.1429.0858.3288.1287.5575.1287.2001 0 .4002-.0572.6003-.1715a7.074 7.074 0 0 0 .6004-.386c.6289-.4288 1.2721-.7719 1.9296-1.0292.686-.2573 1.63-.386 2.83-.386 1.658 0 3.131.3575 4.417 1.0722 1.287.7147 2.287 1.7581 3.002 3.1304.743 1.3722 1.115 3.0161 1.115 4.9315v12.6075c0 .2287-.086.4288-.257.6004-.172.1715-.372.2572-.601.2572h-3.173c-.229 0-.429-.0857-.6-.2572-.172-.1716-.258-.3717-.258-.6004V18.1813c0-1.601-.457-2.8446-1.372-3.7308-.886-.8863-2.073-1.3294-3.559-1.3294-1.487 0-2.6875.4431-3.6023 1.3294-.9148.8862-1.3722 2.1298-1.3722 3.7308v11.8356c0 .2287-.0858.4288-.2573.6004-.1715.1715-.3716.2572-.6003.2572h-3.1733ZM85.0782 30.8755c-.5146 0-.972-.2287-1.3722-.6861l-6.7754-8.062c-.1143-.1143-.243-.1715-.3859-.1715-.1144 0-.2144.0429-.3002.1287-.0858.0857-.1286.1858-.1286.3001v7.6331c0 .2288-.0858.4289-.2573.6004-.1716.1715-.3717.2573-.6004.2573h-3.1733c-.2287 0-.4288-.0858-.6003-.2573-.1715-.1715-.2573-.3716-.2573-.6004V.8577c0-.2288.0858-.4289.2573-.6004.1715-.1715.3716-.2573.6003-.2573h3.1733c.2287 0 .4288.0858.6004.2573.1715.1715.2573.3716.2573.6004V16.81c0 .1429.0428.2573.1286.3431.0858.0857.1858.1286.3002.1286.1143 0 .2287-.0572.343-.1715l6.9898-7.5045c.4003-.4002.8291-.6004 1.2865-.6004h3.4734c.2573 0 .4575.0858.6004.2574.1715.1715.2573.3716.2573.6003 0 .2573-.0858.4717-.2573.6432l-7.8474 8.4479c-.1716.1716-.2573.3431-.2573.5146 0 .1715.0857.3431.2573.5146l8.0189 9.3913c.1716.2001.2573.4145.2573.6432 0 .2573-.0857.4718-.2573.6433-.1429.1429-.343.2144-.6003.2144h-3.7308ZM55.9207 30.8762c-.2287 0-.4431-.0857-.6433-.2572-.1715-.1716-.2573-.3717-.2573-.6004V9.8638c0-.2287.0858-.4289.2573-.6004.2002-.1715.4146-.2573.6433-.2573h2.187c.5145 0 .829.2859.9434.8577.1143.5145.2287.9005.343 1.1578.143.2287.3574.3431.6433.3431.1715 0 .3573-.0572.5574-.1716a8.6424 8.6424 0 0 0 .6004-.4717c.6289-.5432 1.2721-.9577 1.9297-1.2436.6575-.3145 1.5723-.4717 2.7444-.4717h2.187c.2287 0 .4288.0858.6004.2573.1715.1715.2573.3716.2573.6004v3.3877c0 .2287-.0858.4288-.2573.6003-.1716.1716-.3717.2573-.6004.2573H65.612c-1.6581 0-3.0303.486-4.1167 1.458-1.0577.9721-1.5866 2.4729-1.5866 4.5027v9.9488c0 .2287-.0858.4288-.2573.6004-.1715.1715-.3716.2572-.6003.2572h-3.1304ZM38.2215 31.6035c-1.4866 0-2.8446-.243-4.0738-.729-1.2293-.5145-2.2728-1.2578-3.1304-2.2299-.972-1.0291-1.7153-2.287-2.2299-3.7736-.5146-1.4866-.7719-3.1305-.7719-4.9315 0-1.8011.2573-3.4449.7719-4.9315.5146-1.4866 1.2579-2.7445 2.2299-3.7737.8576-.9434 1.9011-1.6724 3.1304-2.187 1.2292-.5146 2.5872-.772 4.0738-.772 1.2007 0 2.1584.143 2.8731.429.7147.2572 1.4294.6146 2.1441 1.072.6003.4002 1.072.6003 1.4151.6003.2573 0 .4574-.0571.6003-.1715.1716-.1143.3431-.2859.5146-.5146.2859-.4574.629-.6861 1.0292-.6861h2.2299c.2287 0 .4288.0858.6003.2573.1715.1715.2573.3716.2573.6004v20.1548c0 .2287-.0858.4288-.2573.6003-.1715.1716-.3716.2573-.6003.2573h-2.2299c-.4002 0-.7433-.2287-1.0292-.6861-.1715-.2287-.343-.4002-.5146-.5146-.1429-.1143-.343-.1715-.6003-.1715-.3431 0-.8148.2001-1.4151.6004-.7147.4574-1.4294.8147-2.1441 1.072-.7147.2859-1.6724.4288-2.8731.4288Zm-5.1888-11.664c0 1.9726.5003 3.5735 1.5009 4.8028.5146.629 1.1578 1.1293 1.9297 1.5009.7719.3431 1.6581.5146 2.6587.5146 1.0006 0 1.8868-.1715 2.6587-.5146.7719-.3716 1.4151-.8719 1.9297-1.5009.972-1.2293 1.458-2.8302 1.458-4.8028 0-1.9726-.486-3.5593-1.458-4.76-.5146-.6575-1.1578-1.1578-1.9297-1.5009-.7719-.3716-1.6581-.5575-2.6587-.5575-1.0006 0-1.8868.1859-2.6587.5575-.7719.3431-1.4151.8434-1.9297 1.5009-1.0006 1.1721-1.5009 2.7588-1.5009 4.76ZM.8576 30.8763c-.2287 0-.4288-.0858-.6003-.2573C.0858 30.4474 0 30.2473 0 30.0186V1.716c0-.2287.0858-.4288.2573-.6003C.4288.9442.6289.8584.8576.8584H10.935c4.231 0 7.6902 1.3008 10.3774 3.9023 1.3437 1.315 2.3729 2.9303 3.0876 4.8458.7147 1.8868 1.072 3.9737 1.072 6.2608 0 2.2871-.3573 4.3883-1.072 6.3038-.7147 1.8868-1.7439 3.4878-3.0876 4.8028-2.6872 2.6016-6.1464 3.9024-10.3774 3.9024H.8576Zm4.3311-5.6177c0 .2859.143.4289.4289.4289h5.3174c2.7158 0 4.8742-.8005 6.4752-2.4015.8862-.8576 1.558-1.9154 2.0154-3.1733.4574-1.2579.6861-2.673.6861-4.2454 0-1.5723-.2287-2.9875-.6861-4.2454-.4574-1.2578-1.1292-2.3156-2.0154-3.1733-1.6581-1.601-3.8165-2.4014-6.4752-2.4014H5.6176c-.286 0-.4289.143-.4289.4288v18.7826Z"/><g fill="#0D1416" clip-path="url(#a)"><path d="M224.01.3372h3.921c.968 0 1.753.7914 1.753 1.7677v4.3236c0 .9763-.785 1.7678-1.753 1.7678h-3.921c-.968 0-1.753-.7915-1.753-1.7678V2.105c0-.9763.785-1.7677 1.753-1.7677ZM186.768.3372h3.921c.968 0 1.753.7914 1.753 1.7677v4.3236c0 .9763-.785 1.7678-1.753 1.7678h-3.921c-.968 0-1.753-.7915-1.753-1.7678V2.105c0-.9763.785-1.7677 1.753-1.7677Z"/><g filter="url(#b)"><path d="M186.676 18.3167h4.017c.504 0 .829.3719.913.9207l.365 2.6184c.055.2836.197.442.438.442h2.111c.504 0 .821.3462.913.9207l.365 2.217c.058.4714.38.7587.876.8839 0 0 2.082.6519 10.754.6519v5.5278c-8.669 0-13.638-.6555-13.638-.6555-.413-.0626-.913-.4125-.913-.9207l-.365-1.9519c0-.243-.198-.4419-.439-.4419h-2.49c-.504 0-.781-.4088-.913-.9207l-.365-1.4842c-.055-.3094-.197-.4419-.438-.4419h-.825c-.504 0-.913-.4125-.913-.9207l-.365-5.5242c0-.5083.409-.9207.912-.9207Z"/><path d="m219.058 25.4355.365-2.217c.091-.5745.409-.9207.913-.9207h2.111c.241 0 .383-.1584.438-.442l.365-2.6184c.084-.5488.409-.9207.913-.9207h4.017c.503 0 .912.4124.912.9207l-.365 5.5242c0 .5082-.409.9207-.913.9207h-.825c-.241 0-.383.1325-.438.4419l-.365 1.4842c-.132.5119-.409.9207-.913.9207h-2.49c-.241 0-.439.1989-.439.4419l-.365 1.9519c0 .5082-.5.8581-.913.9207 0 0-4.969.6555-13.638.6555v-5.5278c8.672 0 10.754-.6519 10.754-.6519.496-.1252.818-.4125.876-.8839Z"/></g></g><defs><clipPath id="a"><path fill="#fff" d="M229.684.3372h-44.6689v32.162h44.6689z"/></clipPath><filter id="b" width="43.5689" height="14.5026" x="185.764" y="17.9967" color-interpolation-filters="sRGB" filterUnits="userSpaceOnUse"><feFlood flood-opacity="0" result="BackgroundImageFix"/><feBlend in="SourceGraphic" in2="BackgroundImageFix" result="shape"/><feColorMatrix in="SourceAlpha" result="hardAlpha" values="0 0 0 0 0 0 0 0 0 0 0 0 0 0 0 0 0 0 127 0"/><feOffset dx="-.24" dy=".24"/><feComposite in2="hardAlpha" k2="-1" k3="1" operator="arithmetic"/><feColorMatrix values="0 0 0 0 1 0 0 0 0 1 0 0 0 0 1 0 0 0 1 0"/><feBlend in2="shape" result="effect1_innerShadow_4758_6212"/><feColorMatrix in="SourceAlpha" result="hardAlpha" values="0 0 0 0 0 0 0 0 0 0 0 0 0 0 0 0 0 0 127 0"/><feOffset dx=".24" dy="-.5"/><feGaussianBlur stdDeviation=".16"/><feComposite in2="hardAlpha" k2="-1" k3="1" operator="arithmetic"/><feColorMatrix values="0 0 0 0 0.686275 0 0 0 0 0.776471 0 0 0 0 0.792157 0 0 0 1 0"/><feBlend in2="effect1_innerShadow_4758_6212" result="effect2_innerShadow_4758_6212"/><feColorMatrix in="SourceAlpha" result="hardAlpha" values="0 0 0 0 0 0 0 0 0 0 0 0 0 0 0 0 0 0 127 0"/><feOffset dy="-.24"/><feGaussianBlur stdDeviation=".5"/><feComposite in2="hardAlpha" k2="-1" k3="1" operator="arithmetic"/><feColorMatrix values="0 0 0 0 0.294269 0 0 0 0 0.402982 0 0 0 0 0.405843 0 0 0 0.38 0"/><feBlend in2="effect2_innerShadow_4758_6212" result="effect3_innerShadow_4758_6212"/></filter></defs></svg>