<svg xmlns="http://www.w3.org/2000/svg" version="1.1" xmlns:xlink="http://www.w3.org/1999/xlink" xmlns:svgjs="http://svgjs.dev/svgjs" width="1000" height="1342" viewBox="0 0 1000 1342"><g transform="matrix(1,0,0,1,0.6443334792658106,0.5433198380566182)"><svg viewBox="0 0 184 247" data-background-color="#ffffff" preserveAspectRatio="xMidYMid meet" height="1342" width="1000" xmlns="http://www.w3.org/2000/svg" xmlns:xlink="http://www.w3.org/1999/xlink"><g id="tight-bounds" transform="matrix(1,0,0,1,-0.11855734147826524,-0.09999999999999432)"><svg viewBox="0 0 184.23711367603926 247.2" height="247.2" width="184.23711367603926"><g><svg viewBox="0 0 395.52 530.6886438305926" height="247.2" width="184.23711367603926"><g transform="matrix(1,0,0,1,0,292.2663403751617)"><svg viewBox="0 0 395.52 238.42230345543086" height="238.42230345543086" width="395.52"><g id="textblocktransform"><svg viewBox="0 0 395.52 238.42230345543086" height="238.42230345543086" width="395.52" id="textblock"><g><svg viewBox="0 0 395.52 128.59359781121748" height="128.59359781121748" width="395.52"><g transform="matrix(1,0,0,1,0,0)"><svg width="395.52" viewBox="2.75 -34.849998474121094 109.63999938964844 35.64999771118164" height="128.59359781121748" data-palette-color="#a437db"><path d="M16.65 0.8Q12.35 0.8 9.22-1.33 6.1-3.45 4.42-7.43 2.75-11.4 2.75-16.95L2.75-16.95Q2.75-22.55 4.38-26.58 6-30.6 9.03-32.73 12.05-34.85 16.2-34.85L16.2-34.85Q20.45-34.85 23.48-32.98 26.5-31.1 28.2-27.7L28.2-27.7 25.2-25.95Q23.6-28.9 21.45-30.18 19.3-31.45 16.2-31.45L16.2-31.45Q11.75-31.45 9.22-27.63 6.7-23.8 6.7-17L6.7-17Q6.7-12.55 7.85-9.3 9-6.05 11.15-4.33 13.3-2.6 16.15-2.6L16.15-2.6Q19.7-2.6 21.68-4.17 23.65-5.75 25.35-9.1L25.35-9.1 28.5-7.2Q26.7-3.3 23.73-1.25 20.75 0.8 16.65 0.8L16.65 0.8ZM53.3 0L34.2 0 34.2-34.1 37.95-34.1 37.95-3.1 53.3-3.1 53.3 0ZM82.7 0L79.2 0 75.7-9.55 61.55-9.55 58.4 0 54.65 0 66.75-34.1 70.25-34.1 82.7 0ZM68.45-29.2L62.7-12.65 74.55-12.65 68.45-29.2ZM91.04 0L87.29 0 87.29-34.1 91.29-34.1 108.64-5.65 108.64-34.1 112.39-34.1 112.39 0 108.39 0 91.04-28.35 91.04 0Z" opacity="1" transform="matrix(1,0,0,1,0,0)" fill="#a437db" class="wordmark-text-0" data-fill-palette-color="primary" id="text-0"></path></svg></g></svg></g><g transform="matrix(1,0,0,1,0,158.95146000809845)"><svg viewBox="0 0 395.52 79.4708434473324" height="79.4708434473324" width="395.52"><g transform="matrix(1,0,0,1,0,0)"><svg width="395.52" viewBox="2.9800000190734863 -37.15999984741211 187.85000610351562 37.75" height="79.4708434473324" data-palette-color="#b19dd0"><path d="M21.34-8.35L21.34-8.35Q21.68-7.91 21.75-7.64 21.83-7.37 21.92-7.1 22.02-6.84 22.09-6.59 22.17-6.35 22.17-6.3L22.17-6.3Q22.17-5.96 22.05-5.74 21.92-5.52 21.68-5.18L21.68-5.18Q19.73-4.44 17.82-3.74 15.92-3.03 13.92-2.34L13.92-2.34Q13.38-2.2 12.94-2.03 12.5-1.86 11.96-1.76L11.96-1.76Q11.87-1.66 11.65-1.59 11.43-1.51 11.13-1.42 10.84-1.32 10.57-1.25 10.3-1.17 10.21-1.17L10.21-1.17Q9.81-1.07 9.35-1.1 8.89-1.12 8.45-1.07L8.45-1.07Q8.2-1.03 8.11-0.83 8.01-0.63 7.89-0.42 7.76-0.2 7.52-0.02 7.28 0.15 6.84 0.15L6.84 0.15Q6.4 0.15 5.96 0.1 5.52 0.05 5.03-0.15L5.03-0.15Q4.93-0.29 4.96-0.51 4.98-0.73 4.88-0.88L4.88-0.88Q4.44-0.93 4.2-0.81 3.96-0.68 3.71-0.63L3.71-0.63Q3.56-0.83 3.49-1.1 3.42-1.37 3.22-1.56L3.22-1.56Q3.17-1.81 3.17-2.05 3.17-2.29 3.17-2.54L3.17-2.54Q3.17-2.88 3.2-3.34 3.22-3.81 3.37-4.05L3.37-4.05Q3.52-6.84 3.52-9.62 3.52-12.4 3.52-15.19L3.52-15.19Q3.52-15.48 3.52-15.94 3.52-16.41 3.49-16.89 3.47-17.38 3.44-17.8 3.42-18.21 3.37-18.41L3.37-18.41Q3.42-18.75 3.42-19.07 3.42-19.38 3.42-19.73L3.42-19.73Q3.42-20.02 3.42-20.26 3.42-20.51 3.32-20.75L3.32-20.75Q3.37-20.95 3.37-21.29L3.37-21.29Q3.37-21.53 3.32-21.78 3.27-22.02 3.27-22.27L3.27-22.27Q3.27-22.66 3.3-23.02 3.32-23.39 3.32-23.78L3.32-23.78Q3.32-25.05 3.2-26.29 3.08-27.54 3.08-28.81L3.08-28.81Q3.08-30.47 3.05-32.13 3.03-33.79 2.98-35.45L2.98-35.45Q3.17-35.94 3.17-36.28L3.17-36.28Q3.86-36.62 4.25-36.52 4.64-36.43 5.03-36.43L5.03-36.43Q5.27-36.43 5.47-36.47 5.66-36.52 5.86-36.62L5.86-36.62Q6.1-36.57 6.27-36.5 6.45-36.43 6.69-36.43L6.69-36.43Q7.42-36.57 7.5-36.47 7.57-36.38 7.71-36.28L7.71-36.28Q7.91-36.33 8.03-36.45 8.15-36.57 8.35-36.57L8.35-36.57Q8.64-36.57 8.79-36.21 8.94-35.84 9.13-35.6L9.13-35.6Q9.13-35.06 9.33-34.62L9.33-34.62Q9.42-32.62 9.4-30.66 9.38-28.71 9.52-26.76L9.52-26.76Q9.57-25.88 9.64-24.93 9.72-23.97 9.72-23.1L9.72-23.1Q9.72-21.63 9.74-20.14 9.77-18.65 9.77-17.14L9.77-17.14Q9.77-16.89 9.79-16.7 9.81-16.5 9.81-16.26L9.81-16.26Q9.81-15.67 9.77-15.14 9.72-14.6 9.72-14.06L9.72-14.06 9.72-10.25Q9.72-9.77 9.69-9.25 9.67-8.74 9.72-8.25L9.72-8.25 9.91-7.67Q10.45-7.86 11.01-8.08 11.57-8.3 12.21-8.4L12.21-8.4Q12.6-8.5 12.94-8.59 13.28-8.69 13.67-8.79L13.67-8.79Q14.36-9.18 14.75-9.33 15.14-9.47 15.53-9.62L15.53-9.62Q16.36-9.91 17.14-10.23 17.92-10.55 18.75-10.84L18.75-10.84Q19.14-10.74 19.38-10.94L19.38-10.94Q19.87-10.84 20.26-10.84L20.26-10.84Q20.8-10.3 20.92-10.01 21.04-9.72 21.29-9.47L21.29-9.47Q21.19-9.23 21.31-9.18 21.44-9.13 21.48-8.94L21.48-8.94Q21.68-8.84 21.53-8.67 21.39-8.5 21.34-8.35ZM108.43-19.38L108.43-19.38Q108.33-19.19 108.23-19.02 108.13-18.85 108.08-18.65L108.08-18.65Q108.28-18.46 108.45-18.24 108.62-18.02 108.62-17.77L108.62-17.77Q108.62-17.58 108.55-17.41 108.48-17.24 108.52-17.09L108.52-17.09Q108.33-16.75 108.11-16.46 107.89-16.16 107.79-15.82L107.79-15.82Q107.6-15.63 107.47-15.43 107.35-15.23 107.25-15.04L107.25-15.04Q107.01-14.94 106.94-14.72 106.86-14.5 106.67-14.36L106.67-14.36Q106.62-14.16 106.18-13.43 105.74-12.7 105.2-11.87 104.67-11.04 104.18-10.25 103.69-9.47 103.5-9.23L103.5-9.23Q103.4-8.98 103.28-8.84 103.15-8.69 103.01-8.5L103.01-8.5Q102.91-8.35 102.86-8.18 102.81-8.01 102.71-7.91L102.71-7.91Q102.62-7.71 102.49-7.57 102.37-7.42 102.27-7.18L102.27-7.18Q101.79-6.54 101.3-5.66 100.81-4.79 100.37-4.1L100.37-4.1Q100.13-3.71 99.91-3.32 99.69-2.93 99.44-2.54L99.44-2.54Q99.2-2.15 98.95-1.81 98.71-1.46 98.47-1.07L98.47-1.07Q98.08-0.78 97.78-0.37 97.49 0.05 97.1 0.34L97.1 0.34Q96.46 0.34 96.32-0.24L96.32-0.24Q95.68-0.39 95.68-0.24 95.68-0.1 95.68 0L95.68 0Q95.49 0.1 95.41 0.29 95.34 0.49 95.15 0.59L95.15 0.59Q94.75 0.49 94.49 0.27 94.22 0.05 93.73 0.1L93.73 0.1Q93.53-0.2 93.29-0.42 93.05-0.63 92.85-0.88L92.85-0.88Q92.75-1.17 92.58-1.37 92.41-1.56 92.26-1.76L92.26-1.76Q92.12-2 91.97-2.2 91.83-2.39 91.68-2.59L91.68-2.59Q91.34-3.03 91.02-3.44 90.7-3.86 90.46-4.3L90.46-4.3Q90.07-4.88 89.7-5.49 89.33-6.1 88.94-6.69L88.94-6.69Q88.75-6.98 88.55-7.28 88.36-7.57 88.21-7.86L88.21-7.86Q88.11-8.11 87.94-8.45 87.77-8.79 87.53-8.89L87.53-8.89Q87.43-9.28 87.19-9.47 86.94-9.67 86.7-9.96L86.7-9.96Q86.36-10.35 86.06-10.82 85.77-11.28 85.48-11.77L85.48-11.77Q84.5-13.13 83.65-14.45 82.79-15.77 81.96-17.19L81.96-17.19Q82.21-17.97 82.21-18.36 82.21-18.75 82.45-18.99L82.45-18.99Q82.45-19.19 82.55-19.58L82.55-19.58Q83.18-20.65 83.77-21.53L83.77-21.53Q84.31-22.36 84.53-22.9 84.75-23.44 84.99-24.02L84.99-24.02Q85.23-24.17 85.38-24.39 85.53-24.61 85.77-24.8L85.77-24.8Q85.87-25.34 86.21-25.71 86.55-26.07 86.65-26.61L86.65-26.61Q87.09-26.95 87.14-27.39L87.14-27.39Q87.77-27.83 87.92-28.56L87.92-28.56Q88.31-28.96 88.58-29.44 88.85-29.93 89.09-30.47L89.09-30.47Q89.68-30.96 90.02-31.74L90.02-31.74Q90.31-31.93 90.46-32.28 90.6-32.62 90.85-32.86L90.85-32.86Q91.24-33.5 91.46-33.91 91.68-34.33 91.92-34.77L91.92-34.77Q92.26-34.77 92.36-35.01 92.46-35.25 92.75-35.21L92.75-35.21Q92.75-35.64 93-35.99L93-35.99Q93.09-36.04 93.29-36.11 93.49-36.18 93.49-36.28L93.49-36.28Q93.39-36.87 93.53-36.96 93.68-37.06 93.78-37.16L93.78-37.16Q94.32-37.06 94.51-37.01 94.71-36.96 95.15-36.67L95.15-36.67Q95.63-36.67 95.83-36.47 96.02-36.28 96.27-36.18L96.27-36.18Q96.46-35.99 96.59-35.79 96.71-35.6 96.95-35.5L96.95-35.5Q97.34-34.96 97.78-34.33 98.22-33.69 98.61-33.15L98.61-33.15Q99.15-32.42 99.71-31.76 100.27-31.1 100.76-30.32L100.76-30.32Q100.91-30.08 101.3-29.47 101.69-28.86 102.18-28.17 102.67-27.49 103.06-26.93 103.45-26.37 103.59-26.27L103.59-26.27Q103.74-26.03 104.23-25.34 104.72-24.66 105.28-23.9 105.84-23.14 106.38-22.46 106.91-21.78 107.11-21.58L107.11-21.58Q107.65-20.85 107.91-20.39 108.18-19.92 108.43-19.38ZM97.25-10.21L97.25-10.21Q97.78-10.94 98.08-11.52 98.37-12.11 98.66-12.7L98.66-12.7Q99.15-13.28 99.25-13.53 99.34-13.77 99.49-14.01L99.49-14.01Q99.88-14.6 100.3-15.19 100.71-15.77 100.96-16.46L100.96-16.46Q101.25-16.65 101.4-16.94 101.54-17.24 101.83-17.48L101.83-17.48Q101.54-18.51 101.15-19.07 100.76-19.63 100.37-20.17L100.37-20.17Q100.22-20.41 100.08-20.65 99.93-20.9 99.78-21.14L99.78-21.14Q99.59-21.29 99.47-21.44 99.34-21.58 99.2-21.73L99.2-21.73Q99.1-21.97 98.91-22.36L98.91-22.36Q98.71-22.61 98.51-22.8 98.32-23 98.17-23.29L98.17-23.29Q97.98-23.49 97.68-23.83 97.39-24.17 97.07-24.58 96.76-25 96.51-25.37 96.27-25.73 96.12-25.98L96.12-25.98Q96.02-26.22 95.95-26.39 95.88-26.56 95.78-26.76L95.78-26.76Q95.54-27.1 95.29-27.37 95.05-27.64 94.8-27.98L94.8-27.98Q94.66-27.88 94.54-27.86 94.41-27.83 94.32-27.73L94.32-27.73Q93.97-27.1 93.56-26.56 93.14-26.03 92.75-25.39L92.75-25.39Q92.41-24.8 92.07-24.19 91.73-23.58 91.39-23L91.39-23Q91.14-22.66 90.92-22.34 90.7-22.02 90.46-21.63L90.46-21.63Q90.21-21.29 90.04-20.92 89.87-20.56 89.63-20.21L89.63-20.21Q89.24-19.73 88.99-19.34 88.75-18.95 88.5-18.41L88.5-18.41Q88.65-18.12 88.97-17.6 89.29-17.09 89.63-16.58 89.97-16.06 90.24-15.63 90.51-15.19 90.56-15.04L90.56-15.04Q90.95-14.7 91.19-14.28 91.43-13.87 91.83-13.48L91.83-13.48Q92.02-13.09 92.26-12.79 92.51-12.5 92.75-12.16L92.75-12.16Q93-11.82 93.39-11.16 93.78-10.5 94.17-9.81 94.56-9.13 94.95-8.54 95.34-7.96 95.58-7.81L95.58-7.81Q96.07-8.35 96.39-9.01 96.71-9.67 97.25-10.21ZM190-8.35L190-8.35Q190.34-7.91 190.41-7.64 190.49-7.37 190.58-7.1 190.68-6.84 190.75-6.59 190.83-6.35 190.83-6.3L190.83-6.3Q190.83-5.96 190.71-5.74 190.58-5.52 190.34-5.18L190.34-5.18Q188.39-4.44 186.48-3.74 184.58-3.03 182.58-2.34L182.58-2.34Q182.04-2.2 181.6-2.03 181.16-1.86 180.62-1.76L180.62-1.76Q180.53-1.66 180.31-1.59 180.09-1.51 179.79-1.42 179.5-1.32 179.23-1.25 178.96-1.17 178.87-1.17L178.87-1.17Q178.47-1.07 178.01-1.1 177.55-1.12 177.11-1.07L177.11-1.07Q176.86-1.03 176.77-0.83 176.67-0.63 176.55-0.42 176.42-0.2 176.18-0.02 175.94 0.15 175.5 0.15L175.5 0.15Q175.06 0.15 174.62 0.1 174.18 0.05 173.69-0.15L173.69-0.15Q173.59-0.29 173.62-0.51 173.64-0.73 173.54-0.88L173.54-0.88Q173.1-0.93 172.86-0.81 172.62-0.68 172.37-0.63L172.37-0.63Q172.22-0.83 172.15-1.1 172.08-1.37 171.88-1.56L171.88-1.56Q171.83-1.81 171.83-2.05 171.83-2.29 171.83-2.54L171.83-2.54Q171.83-2.88 171.86-3.34 171.88-3.81 172.03-4.05L172.03-4.05Q172.18-6.84 172.18-9.62 172.18-12.4 172.18-15.19L172.18-15.19Q172.18-15.48 172.18-15.94 172.18-16.41 172.15-16.89 172.13-17.38 172.1-17.8 172.08-18.21 172.03-18.41L172.03-18.41Q172.08-18.75 172.08-19.07 172.08-19.38 172.08-19.73L172.08-19.73Q172.08-20.02 172.08-20.26 172.08-20.51 171.98-20.75L171.98-20.75Q172.03-20.95 172.03-21.29L172.03-21.29Q172.03-21.53 171.98-21.78 171.93-22.02 171.93-22.27L171.93-22.27Q171.93-22.66 171.96-23.02 171.98-23.39 171.98-23.78L171.98-23.78Q171.98-25.05 171.86-26.29 171.74-27.54 171.74-28.81L171.74-28.81Q171.74-30.47 171.71-32.13 171.69-33.79 171.64-35.45L171.64-35.45Q171.83-35.94 171.83-36.28L171.83-36.28Q172.52-36.62 172.91-36.52 173.3-36.43 173.69-36.43L173.69-36.43Q173.93-36.43 174.13-36.47 174.32-36.52 174.52-36.62L174.52-36.62Q174.76-36.57 174.93-36.5 175.11-36.43 175.35-36.43L175.35-36.43Q176.08-36.57 176.16-36.47 176.23-36.38 176.37-36.28L176.37-36.28Q176.57-36.33 176.69-36.45 176.81-36.57 177.01-36.57L177.01-36.57Q177.3-36.57 177.45-36.21 177.6-35.84 177.79-35.6L177.79-35.6Q177.79-35.06 177.99-34.62L177.99-34.62Q178.08-32.62 178.06-30.66 178.04-28.71 178.18-26.76L178.18-26.76Q178.23-25.88 178.3-24.93 178.38-23.97 178.38-23.1L178.38-23.1Q178.38-21.63 178.4-20.14 178.43-18.65 178.43-17.14L178.43-17.14Q178.43-16.89 178.45-16.7 178.47-16.5 178.47-16.26L178.47-16.26Q178.47-15.67 178.43-15.14 178.38-14.6 178.38-14.06L178.38-14.06 178.38-10.25Q178.38-9.77 178.35-9.25 178.33-8.74 178.38-8.25L178.38-8.25 178.57-7.67Q179.11-7.86 179.67-8.08 180.23-8.3 180.87-8.4L180.87-8.4Q181.26-8.5 181.6-8.59 181.94-8.69 182.33-8.79L182.33-8.79Q183.02-9.18 183.41-9.33 183.8-9.47 184.19-9.62L184.19-9.62Q185.02-9.91 185.8-10.23 186.58-10.55 187.41-10.84L187.41-10.84Q187.8-10.74 188.04-10.94L188.04-10.94Q188.53-10.84 188.92-10.84L188.92-10.84Q189.46-10.3 189.58-10.01 189.71-9.72 189.95-9.47L189.95-9.47Q189.85-9.23 189.97-9.18 190.1-9.13 190.14-8.94L190.14-8.94Q190.34-8.84 190.19-8.67 190.05-8.5 190-8.35Z" opacity="1" transform="matrix(1,0,0,1,0,0)" fill="#b19dd0" class="slogan-text-1" data-fill-palette-color="secondary" id="text-1"></path></svg></g></svg></g></svg></g></svg></g><g transform="matrix(1,0,0,1,75.54432,0)"><svg viewBox="0 0 244.43135999999998 261.9084781782807" height="261.9084781782807" width="244.43135999999998"><g><svg xmlns="http://www.w3.org/2000/svg" xmlns:xlink="http://www.w3.org/1999/xlink" version="1.1" x="8" y="0" viewBox="6.391000747680664 0 87.21800231933594 99.99999237060547" enable-background="new 0 0 100 100" xml:space="preserve" height="261.9084781782807" width="228.43135999999998" class="icon-icon-0" data-fill-palette-color="accent" id="icon-0"><path fill="#8b3c7f" d="M77.806 12.728C67.152 12.728 56.381 8.48 50 0c-6.38 8.479-17.154 12.727-27.807 12.727-5.508 0-10.983-1.135-15.802-3.409 0.54 14.316 1.604 28.825 3.999 42.962 1.222 7.749 2.422 16.888 6.666 23.668 3.729 6.528 9.515 11.869 15.722 16.006 4.715 3.137 9.846 5.717 15.187 7.612 0.853 0.303 1.502 0.434 2.1 0.434 1.036 0 1.917-0.394 3.434-0.974 12.28-4.715 25.46-13.388 30.882-25.855 4.878-11.093 5.954-24.273 7.206-36.19 0.968-9.189 1.671-18.426 2.022-27.663C88.79 11.592 83.312 12.728 77.806 12.728zM81.641 35.937l-0.267 2.568c-0.396 3.824-0.797 7.694-1.326 11.496H50v39.658c-0.001 0-0.002 0.001-0.003 0.001-4.081-1.561-8.003-3.585-11.673-6.026-5.664-3.775-10.016-8.147-12.584-12.645l-0.1-0.175-0.107-0.171c-2.877-4.597-4.016-11.91-5.021-18.363l-0.244-1.557-0.009-0.056-0.01-0.056c-0.034-0.201-0.065-0.408-0.099-0.609H50V13.899l0 0c7.62 5.639 17.418 8.829 27.806 8.829 1.693 0 3.378-0.086 5.046-0.257C82.525 26.877 82.121 31.375 81.641 35.937z" data-fill-palette-color="accent"></path></svg></g></svg></g><g></g></svg></g><defs></defs></svg><rect width="184.23711367603926" height="247.2" fill="none" stroke="none" visibility="hidden"></rect></g></svg></g></svg>