<svg xmlns="http://www.w3.org/2000/svg" width="72" height="89" fill="currentColor"><g clip-path="url(#a)"><path d="M57.709 20.105H68.62c1.157 0 2.099-.94 2.099-2.095V9.632a2.1 2.1 0 0 0-2.099-2.095h-3.439c-1.111 0-2.014-.9-2.014-2.01V2.095A2.1 2.1 0 0 0 61.07 0H30.02a2.1 2.1 0 0 0-2.098 2.095v3.432c0 1.11-.903 2.01-2.014 2.01H22.47c-1.157 0-2.098.94-2.098 2.095v3.432c0 1.11-.903 2.01-2.014 2.01h-3.439c-1.157 0-2.099.94-2.099 2.094 0 0-.503-1.272-.503 22.493 0 21.247.503 19.38.503 19.38 0 1.156.942 2.096 2.1 2.096h3.438c1.111 0 2.014.9 2.014 2.01v3.517c0 1.109.902 2.01 2.013 2.01h3.524c1.111 0 2.014.9 2.014 2.01v3.432a2.1 2.1 0 0 0 2.098 2.094h30.211c1.157 0 2.099-.94 2.099-2.094v-3.433c0-1.11.902-2.01 2.013-2.01h5.557c1.158 0 2.099-.94 2.099-2.094v-9.984a2.1 2.1 0 0 0-2.099-2.095h-13.03c-1.157 0-2.098.94-2.098 2.095v5.044c0 1.11-.902 2.01-2.014 2.01H37.488c-1.111 0-2.013-.9-2.013-2.01v-5.11a2.1 2.1 0 0 0-2.099-2.094h-5.119c-1.111 0-1.739.163-2.014-2.01-.085-.698-.13-1.553-.196-2.695-.163-2.878-.307-1.723-.307-10.369 0-12.085.314-15.563.503-17.24.19-1.677.903-2.01 2.014-2.01h5.12c1.156 0 2.098-.94 2.098-2.094v-3.433c0-1.109.902-2.01 2.013-2.01h16.116c1.111 0 2.014.901 2.014 2.01v3.433c0 1.155.94 2.094 2.098 2.094zM18.626 73.757h-2.478a.87.87 0 0 1-.87-.868v-2.473c0-.96-.777-1.743-1.745-1.743H6.838c-.96 0-1.745.777-1.745 1.743v2.473a.87.87 0 0 1-.87.868H1.746c-.961 0-1.746.776-1.746 1.742v6.682c0 .96.778 1.742 1.746 1.742h2.477c.484 0 .87.392.87.868v2.473c0 .96.778 1.743 1.745 1.743h6.695c.961 0 1.746-.777 1.746-1.743v-2.473c0-.483.392-.868.87-.868h2.477c.961 0 1.746-.776 1.746-1.742v-6.682c0-.96-.778-1.742-1.746-1.742"/></g><defs><clipPath id="a"><path d="M0 0h72v89H0z"/></clipPath></defs></svg>